<?xml version="1.0" encoding="utf-8"?>
<!-- Generator: Adobe Illustrator 16.0.4, SVG Export Plug-In . SVG Version: 6.00 Build 0)  -->
<!DOCTYPE svg PUBLIC "-//W3C//DTD SVG 1.1//EN" "http://www.w3.org/Graphics/SVG/1.1/DTD/svg11.dtd">
<svg version="1.1" id="Kanton_Zürich_Logo_100_x25_"
	 xmlns="http://www.w3.org/2000/svg" xmlns:xlink="http://www.w3.org/1999/xlink" x="0px" y="0px" width="62px" height="48px"
	 viewBox="0 0 62 48" enable-background="new 0 0 62 48" xml:space="preserve">
<g id="Löwe_1_">
	<path d="M14.732,44.145c0.153,0.045,0.321,0.137,0.401,0.256c0.194-0.228,0.462-0.76,0.346-1.252
		C15.113,43.146,14.774,43.706,14.732,44.145 M15.672,42.629c0.14,0.266,0.214,0.73,0.175,1.014c0.052,0.006,0.116,0.026,0.174,0.05
		c0.113-0.275,0.229-0.94-0.023-1.38C15.879,42.332,15.704,42.456,15.672,42.629 M16.572,42.964
		c0.149-0.428,0.105-0.948-0.051-1.151c-0.039-0.051-0.266,0.073-0.306,0.228c0.125,0.208,0.245,0.637,0.231,0.9
		C16.486,42.94,16.532,42.946,16.572,42.964 M26.988,42.372c0.204,0.032,0.397,0.112,0.51,0.183
		c0.102-0.162,0.353-0.818,0.207-1.178C27.291,41.416,26.982,42.083,26.988,42.372 M27.938,40.943
		c0.103,0.18,0.186,0.536,0.192,0.761c0.054,0.003,0.122,0.003,0.172,0.018c0.149-0.438,0.101-0.972-0.05-1.166
		C28.164,40.527,28.006,40.758,27.938,40.943 M28.781,40.628c0.05-0.246,0-0.703-0.133-0.872c-0.094-0.059-0.203,0.116-0.251,0.322
		c0.107,0.154,0.238,0.392,0.266,0.55C28.703,40.623,28.739,40.623,28.781,40.628 M19.213,27.865
		c-0.582,0.208-1.309,0.69-1.33,0.825c-0.05,0.313-0.068,0.765-0.068,1.103c0.378-0.216,0.486-0.6,0.912-0.928
		c0.768-0.591,1.142-0.677,1.101-0.764C19.738,27.945,19.379,27.865,19.213,27.865 M27.538,38.956
		c-1.16-0.116-2.276,0.899-3.007,0.449c-0.333-0.204-0.777-0.673-1.104-1.139c-0.205-0.293-0.781-1.133-0.729-1.471
		c0.021-0.141,0.251-0.244,0.656-0.494c0.706-0.438,1.341-0.876,1.929-1.34c0.717-0.564,1.818-1.417,1.828-2.524
		c0.008-0.763-0.507-1.591-0.909-2.1c-0.709-0.896-1.926-1.747-3.087-2.394c-0.51-0.283-1.463-0.77-2.057-1
		c-0.585,0.321-0.873,0.408-1.368,0.668c0.363,0.143,0.661,0.372,0.603,0.567c-0.037,0.121-0.129,0.147-0.562,0.431
		c-0.255,0.166-0.566,0.404-0.711,0.534c-0.319,0.287-0.495,0.606-0.767,0.922c-0.165,0.192-0.27,0.263-0.436,0.385
		c-0.002,0.16-0.011,0.305-0.021,0.508c1.894,0.053,3.606,0.588,4.432,1.622c0.118,0.147,0.301,0.403,0.375,0.596
		c0.371,0.965-0.259,1.751-0.788,2.094c-0.526,0.339-1.726,0.546-2.062,0.857c-0.262,0.24-0.285,0.674-0.594,1.049
		c-0.14,0.169-0.304,0.27-0.498,0.379c0.105,0.195,0.51,0.366,0.799,0.336c0.112-0.106,0.225-0.18,0.341-0.352
		c0.088-0.13,0.166-0.34,0.16-0.573c-0.002-0.056,0.082-0.12,0.119,0.072c0.188,0.961-0.954,1.073-0.749,2.146
		c0.21-0.138,0.545-0.3,0.904-0.213c0.091-0.187,0.22-0.296,0.324-0.456c0.062-0.097,0.135-0.247,0.126-0.521
		c-0.003-0.07,0.095-0.097,0.134,0.146c0.113,0.692-0.637,0.869-0.327,1.964c0.202-0.17,0.5-0.246,0.786-0.239
		c0.073-0.153,0.255-0.313,0.212-0.66c-0.01-0.077,0.074-0.154,0.137,0.103c0.125,0.514-0.318,0.706-0.092,1.384
		c0.79-0.312,0.992,0.244,1.342,0.686c0.201,0.251,0.465,0.649,0.673,0.806c0.529,0.397,2.015,0.055,3.141,0.172
		c0.072-0.598,0.469-1.132,0.951-1.244c-0.228-0.741-1.229-0.916-1.722-0.422c-0.076,0.074-0.028-0.123,0.117-0.244
		c0.474-0.391,1.322-0.27,1.742,0.266c0.083-0.202,0.245-0.382,0.37-0.386c-0.355-0.737-1.389-0.899-1.958-0.449
		c-0.044,0.035-0.06-0.062,0.1-0.197c0.438-0.376,1.378-0.349,1.933,0.228c0.037-0.21,0.148-0.367,0.262-0.367
		C28.333,39.298,27.915,38.993,27.538,38.956 M33.789,23.135c-0.359,0.237-0.36,0.792-0.298,1.147
		c0.19-0.034,0.348-0.028,0.515,0.023C34.119,23.938,34.004,23.349,33.789,23.135 M34.462,23.395
		c0.008-0.421-0.227-1.007-0.48-1.221c-0.123,0.02-0.148,0.303-0.135,0.491c0.242,0.205,0.403,0.503,0.48,0.752
		C34.373,23.407,34.425,23.396,34.462,23.395 M34.084,21.865c0.173,0.176,0.351,0.435,0.434,0.66
		c0.028-0.007,0.077-0.018,0.107-0.018c0.021-0.299-0.169-0.833-0.421-1.045C34.095,21.432,34.055,21.728,34.084,21.865
		 M32.648,11.929c-0.243-0.371-0.745-0.512-1.007-0.487c-0.092,0.36,0.388,0.778,0.709,0.894
		C32.453,12.106,32.557,11.991,32.648,11.929 M32.012,10.995c-0.229-0.217-0.819-0.485-1.243-0.349
		c-0.033,0.169,0.206,0.395,0.377,0.496c0.208-0.077,0.501-0.111,0.816-0.04C31.975,11.07,31.99,11.038,32.012,10.995
		 M29.659,12.123c-0.157-0.422-0.129-0.736,0.043-1.101c0.085-0.178,0.278-0.379,0.408-0.476c-0.229-0.049-0.314-0.166-0.343-0.266
		c-1.24,0.647-0.594,1.902-0.721,3.019c-0.079,0.694-0.983,0.943-1.577,1.306c-0.511,0.312-1.012,0.649-1.366,1.001
		c0.641,1.479,0.202,1.804,0.916,2.518c-0.12,0.143-0.351,0.243-0.518,0.243c-0.01,0.626-0.066,1.194-0.231,1.754
		c0.521-0.208,0.911,0.137,1.346-0.277c-0.4-0.298-0.417-0.851-0.314-1.159c0.06-0.178,0.138-0.157,0.138-0.106
		c0,0.089,0.012,0.171,0.032,0.229c0.232,0.058,0.726,0.081,1.051-0.128c-0.557-0.93,0.51-1.75,1.317-2.265
		c0.56-0.356,1.367-0.75,1.767-1.277c0.539-0.71,0.274-1.482,0.619-2.534c-0.406-0.199-0.944-0.592-0.885-1.155
		c-0.428,0.052-0.93,0.57-0.655,1.447c0.046,0.15-0.048,0.107-0.138-0.035c-0.35-0.642-0.037-1.376,0.362-1.591
		c-0.226-0.139-0.411-0.413-0.389-0.558c-0.648,0.23-0.854,0.779-0.713,1.51C29.829,12.331,29.737,12.334,29.659,12.123
		 M31.014,10.143c-0.229-0.107-0.666-0.163-0.965,0.006c-0.098,0.083,0.025,0.2,0.306,0.255c0.219-0.101,0.451-0.143,0.641-0.149
		C30.995,10.21,31.002,10.193,31.014,10.143 M23.004,9.083c-0.023-0.012-0.042,0.042-0.08,0.099
		c-0.053,0.079-0.142,0.199-0.267,0.306c0.121-0.007,0.356,0.008,0.466,0.033C23.137,9.363,23.041,9.1,23.004,9.083 M20.565,9.478
		c0.148,0.484,1.033,0.024,1.725-0.023c0.218-0.175,0.386-0.352,0.478-0.508C21.923,8.782,20.992,8.889,20.565,9.478 M23.185,7.919
		c0.068,0.153,0.113,0.325,0.123,0.389c0.01,0.067,0.007,0.125,0.042,0.108c0.121-0.059,0.327-0.325,0.36-0.51
		C23.566,7.932,23.309,7.927,23.185,7.919 M20.404,9.019c0.582-0.471,1.422-0.647,2.654-0.441c-0.009-0.206-0.128-0.506-0.228-0.65
		C21.597,7.729,20.431,7.71,20.404,9.019 M16.807,3.501c-1.847-0.056-2.49,0.229-3.625,0.275c-0.218-0.005-0.391-0.063-0.458-0.093
		c-0.055,0.123-0.075,0.432-0.002,0.579c-0.624,0.365-0.697,1.077-1.519,0.948c-0.054,0.22,0.085,0.52,0.243,0.632
		c0.083-0.032,0.257-0.092,0.231-0.009c-0.332,0.918-0.267,1.312-0.35,1.774c-0.051,0.277-0.454,0.531-0.821,0.602
		c-0.026,0.244,0.134,0.611,0.482,0.673c0.21-0.417,0.52-0.479,0.467-0.354c-0.09,0.212-0.163,0.589-0.17,0.86
		c-0.021,0.907,0.215,1.826,0.512,2.5c0.577,1.312,1.294,2.36,0.298,2.975c0.13,0.304,0.773,0.517,1.249,0.331
		c0.197-0.505,0.073-0.885,0.047-1.011c-0.011-0.043,0.034-0.054,0.084-0.015c0.29,0.238,0.307,0.708,0.251,1.08
		c-0.147,0.987-1.01,2.206-0.413,3.353c0.177-0.158,0.452-0.288,0.702-0.342c0.041-0.6,0.234-1.021,0.59-1.273
		c0.209-0.148,0.244-0.055,0.188,0.007c-0.438,0.523-0.408,1.505-0.291,2.389c0.146,1.102-0.209,1.75-0.549,1.924
		c0.418,0.257,1.11,0.102,1.467-0.08c0.261-0.134,0.666-0.463,0.821-0.764c-0.396-0.661-0.421-1.279-0.32-1.677
		c0.083-0.327,0.271-0.441,0.235-0.283c-0.252,1.391,1.102,2.028,1.071,3.382c0.703-0.226,1.009-1.053,0.952-1.83
		c0.012-0.106,0.097-0.053,0.135,0.053c0.399,1.108-0.323,2.653-1.665,2.518c0.188-0.654-0.032-1.422-0.228-1.796
		c-0.171,0.345-0.498,0.636-0.809,0.807c-0.041,0.345-0.121,0.648-0.183,0.898c-0.221,0.909-0.609,1.542-1.188,2.121
		c-1.266,1.266-1.733,1.368-2.561,2.54c-0.18,0.182-0.727,0.471-1.042,0.592c-2.503,0.964-4.602-0.346-4.435-2.967
		c0.067-1.055,0.631-2.441,1.079-3.443c1.312-2.931,2.546-5.383,2.704-7.619c0.13-1.838-0.68-3.671-2.637-3.69
		c-1.33-0.014-2.611,1.052-2.64,3.189c-0.017,1.259,0.014,2.211-0.539,3.07c-0.118,0.184-0.176,0.274-0.335,0.475
		c0.763,0.125,1.567-0.297,2.104-0.896c0.051,0.088,0.133,0.229,0.168,0.366c0.563-0.527,0.653-1.5,0.445-2.272
		c0.367,0.104,0.697-0.115,0.829-0.42c-0.849-0.109-1.417-0.896-1.282-1.759c0.079-0.511,0.541-1.069,1.167-1.14
		c1.632-0.188,2.11,1.429,2.088,2.961c-0.029,1.944-1.23,4.091-2.295,6.27c-0.856,1.753-1.829,3.534-1.928,5.198
		c-0.109,1.849,0.756,5.15,5.464,4.436c0.188-0.536,0.421-0.745,0.562-0.685c0.046,0.023,0.012,0.108-0.015,0.282
		c-0.084,0.567-0.112,0.923-0.084,1.531c0.055,1.196,0.588,2.392,0.651,3.256c0.099,1.368-0.625,1.525-1.77,1.653
		c-0.481,0.053-1.198,0.035-1.636,0.24c-0.255,0.119-0.421,0.737-0.67,1.047c-0.244,0.306-0.581,0.46-0.989,0.537
		c0.125,0.308,0.55,0.529,1.011,0.541c0.167-0.122,0.35-0.411,0.428-0.76c0.016-0.072,0.106-0.122,0.097,0.145
		c-0.025,0.721-0.705,1.505-1.464,1.617c0.137,0.344,0.675,0.603,1.095,0.555c0.329-0.172,0.59-0.478,0.71-0.912
		c0.032-0.123,0.111-0.068,0.107,0.095c-0.01,0.43-0.237,0.78-0.535,1.048c-0.298,0.269-0.491,0.625-0.394,1.044
		c0.196-0.096,0.577-0.117,0.862-0.056c0.145-0.132,0.349-0.354,0.406-0.674c0.021-0.106,0.132-0.083,0.112,0.167
		c-0.046,0.598-0.549,0.87-0.42,1.435c1.197-0.56,1.329,1.521,2.261,2.146c0.772,0.521,2.205,0.208,3.507,0.3
		c0.094-0.56,0.46-1.134,0.968-1.239c-0.217-0.8-1.167-0.771-1.602-0.494c-0.095,0.061-0.067-0.061,0.04-0.146
		c0.526-0.384,1.291-0.267,1.655,0.176c0.09-0.162,0.266-0.294,0.409-0.318c-0.375-0.765-1.27-0.909-1.918-0.521
		c-0.116,0.075-0.082-0.092,0.124-0.209c0.775-0.438,1.598-0.096,1.962,0.467c0.075-0.121,0.235-0.269,0.358-0.26
		c-0.212-0.496-0.765-0.846-1.469-0.833c-1.222,0.022-2.251,0.814-2.699,0.203c-0.503-0.694-1.128-1.955-1.178-3.46
		c0-0.127,0.006-0.246,0.121-0.287c0.946-0.211,1.841-0.383,2.64-0.637c0.86-0.273,1.715-0.563,2.33-1.269
		c0.655-0.751,0.834-2.445,0.945-3.818c0.054-0.656,0.12-1.629,0.172-2.349c0.083-1.152,0.331-1.887,0.793-2.1
		c0.117-0.053,0.175,0.003,0.085,0.162c-0.118,0.189-0.215,0.546-0.261,0.868c0.206-0.156,0.472-0.329,0.655-0.427
		c0.605-0.32,1.011-0.494,1.678-0.836c0.637-0.325,1.247-0.759,1.702-1.108c0.287-0.221,0.623-0.485,0.911-0.864
		c-0.071-0.093-0.146-0.213-0.181-0.296c-0.325,0.429-0.992,0.782-1.519,0.738c0.139-0.43-0.021-1.032-0.391-1.329
		c-0.408-0.328-0.663-0.513-0.922-0.788c-0.858-0.919-0.126-2.858-1.007-4.027c-0.062-0.121,0.072-0.089,0.217,0.045
		c0.512,0.474,0.609,1.202,0.715,1.933c0.08,0.548,0.113,1.202,0.38,1.613c0.476,0.729,1.559,0.891,1.513,1.989
		c0.345-0.09,0.769-0.414,0.787-0.702c-0.017-0.131-0.084-0.427-0.268-0.561c-0.044-0.033-0.017-0.101,0.12-0.059
		c0.255,0.079,0.381,0.385,0.49,0.61c0.118,0.244,0.24,0.465,0.414,0.662c0.313,0.353,0.697,0.533,0.75,1.106
		c0.29-0.089,0.676-0.382,0.711-0.758c-0.154-0.427-0.054-0.828-0.509-1.123c-0.06-0.038-0.032-0.138,0.215-0.037
		c0.579,0.238,0.491,0.914,0.772,1.285c0.188,0.247,0.413,0.455,0.794,0.538c0.04-0.347,0.192-0.721,0.506-0.92
		c-0.029-0.193-0.059-0.308-0.282-0.479c-0.06-0.046-0.049-0.138,0.205-0.012c0.525,0.259,0.372,0.991,1.074,1.281
		c0.199-0.605,0.957-0.396,1.676-0.215c0.357,0.09,0.797,0.197,1.182,0.215c1.426,0.069,1.664-0.868,2.914-1.172
		c-0.088-0.609,0.04-1.168,0.439-1.401c-0.522-0.603-1.388-0.295-1.681,0.117c-0.065,0.084-0.057-0.062,0.043-0.203
		c0.376-0.556,1.139-0.612,1.604-0.347c-0.01-0.19,0.065-0.5,0.184-0.508c-0.341-0.376-1.344-0.529-1.887,0.112
		c-0.065,0.073-0.049-0.066,0.029-0.181c0.397-0.529,1.29-0.679,1.895-0.237c-0.004-0.124,0.062-0.39,0.209-0.397
		c-0.255-0.295-0.765-0.469-1.265-0.42c-1.437,0.141-1.83,1.692-3.381,1.564c-0.357-0.029-0.705-0.254-1.397-0.487
		c-0.364-0.122-0.811-0.243-1.215-0.335c-1.109-0.253-2.14-0.267-2.711-0.997c-0.193-0.246-0.359-0.544-0.425-0.981
		c-0.034-0.202,0.046-0.294,0.104-0.159c0.341,0.652,0.695,1.258,1.54,1.418c0.346-0.642,0.604-1.736,0.562-2.684
		c-0.367-0.162-0.365-0.324-0.483-0.373c0.053,0.719-0.224,1.471-0.453,1.695c-0.105-0.674-0.679-1.173-1.271-1.33
		c-0.076-0.02-0.086-0.142,0.235-0.121c0.217,0.015,0.726,0.146,0.949,0.436c0.204-0.694,0.082-1.344-0.169-1.975
		c-0.137-0.341-0.461-0.787-0.822-1.046c-0.077-0.056-0.045-0.142,0.212-0.014c0.655,0.331,1.16,0.978,1.273,1.876
		c0.347,0.198,0.491,0.641,0.979,0.514c-0.417-0.457-0.209-1.221-0.865-2.333c-0.351-0.59-0.819-1.017-1.606-1.395
		c-0.972-0.465-2.143-0.792-2.892-1.085c-0.786-0.308-1.221-0.648-1.325-1.756c-0.262-0.115-0.416-0.28-0.573-0.472
		c-0.144,0.122-0.231,0.39-0.236,0.564c-0.511-0.241-0.783-0.747-0.83-1.19c-0.16,0.023-0.483,0.924-1.665,0.493
		c0.702-0.715-0.26-1.28,0.498-2.133c0.142-0.172,0.355-0.216,0.262-0.088c-0.691,0.964,0.142,1.297-0.181,1.928
		c0.748,0.069,0.793-0.897,1.449-0.882c-0.091,0.428,0.012,1.012,0.277,1.193c0.157-0.271,0.351-0.448,0.641-0.558
		c0.128,0.53,0.511,0.813,0.979,0.915c0.706,0.153,1.5-0.255,2.079-0.175c0.348,0.048,0.66,0.247,0.784,0.534
		c0.288-0.275,0.552-1.32,0.438-1.398c-1.125-0.687-2.948,0.785-3.481-0.459c-0.094-0.22-0.139-0.5-0.101-0.749
		c0.158-1.004,0.839-1.489,2.061-1.402c0.537,0.039,1.713,0.286,2.026,0.058c0.261-0.188,0.188-0.898,0.031-1.207
		c-0.316-0.084-0.683-0.291-0.664-0.519c0.021-0.202,0.212,0.223,0.633,0.097c0.118-0.052,0.183-0.469,0.105-0.494
		c-0.676-0.246-1.604-0.402-2.427-0.317c-0.122,0.359-0.411,0.395-0.436,0.67c-0.042,0.472-0.193,0.859-0.397,1.013
		c-0.08,0.053-0.075-0.027-0.027-0.177c0.057-0.183,0.124-0.49,0.035-0.68c-0.188-0.401-0.992-0.345-1.01-0.79
		c-0.012-0.181,0.096-0.161,0.893,0.02c0.337,0.077,0.371,0.083,0.418-0.019c0.134-0.291-0.323-0.447-0.727-0.541
		c-1.21-0.286-2.326-0.249-2.801-0.069c0.479,0.222,0.604,0.669,0.452,0.882c-0.105,0.136-0.03-0.221-0.568-0.538
		c-0.588-0.346-1.626-0.401-1.828-0.123c-0.114,0.157-0.146,0.625-0.111,0.836c0.061,0.364,0.182,0.721,0.593,0.99
		c0.566,0.37,0.947,0.164,0.895,0.283c-0.12,0.25-0.858,0.215-1.29-0.12c-0.358-0.278-0.625-0.646-0.694-1.168
		c-0.049-0.371,0.002-0.929,0.175-1.13c0.235-0.272,0.903-0.332,1.527-0.213c0.502-0.15,1.167-0.245,1.678-0.21
		C18.142,3.668,17.434,3.52,16.807,3.501 M24.034,7.969c-0.123,0.247-0.338,0.565-0.569,0.672c0.366,0.064,0.986,0.19,1.446,0.142
		c0.572-0.061,0.917-0.58,0.611-1.107c-0.021-0.037-0.011-0.142,0.13-0.067c0.71,0.375,0.563,1.387-0.176,1.646
		c-0.708,0.247-1.587-0.125-2.206-0.225c0.092,0.163,0.156,0.37,0.169,0.488c0.174,0.045,0.605,0.167,0.589,0.324
		c-0.062,0.479-0.154,1.053-0.358,1.497c-0.181,0.395-0.508,0.852-0.908,0.904c0.081-1.369-1.479-0.425-2.36-0.708
		c-0.079,0.973,1.482,1.231,3.15,1.929c0.869,0.365,1.721,0.814,2.286,1.659c0.661-0.49,1.221-0.784,2.095-1.219
		c0.327-0.163,0.63-0.312,0.693-0.616c0.05-0.241,0.023-0.878-0.029-1.255c-0.261-1.899,1.628-2.947,2.899-1.983
		c-0.035,0.056-0.071,0.144-0.08,0.236c0.393,0.098,0.81,0.348,1.077,0.6c-0.083,0.093-0.147,0.19-0.187,0.305
		c0.315,0.133,0.73,0.466,0.863,0.803c-0.158,0.135-0.344,0.412-0.412,0.551c-0.238,0.488-0.24,1.106-0.347,1.663
		c-0.093,0.484-0.283,1.024-0.601,1.391c-0.691,0.798-2.11,1.242-2.811,2.083c-0.238,0.286-0.241,0.902,0.173,1.048
		c-0.396,0.486-1.058,0.563-1.483,0.512c0.074,0.305,0.425,0.476,0.603,0.492c-0.595,1.16-1.644,0.58-2.154,0.895
		c-0.05,0.151-0.088,0.243-0.134,0.343c0.864,0.146,1.779,0.444,2.302,0.652c0.459,0.181,1.153,0.58,1.802,0.348
		c0.397-0.142,0.773-0.539,1.132-0.803c0.477-0.352,1.005-0.753,2.006-0.637c0.89,0.104,1.827,0.93,1.751,2.278
		c-0.101-0.012-0.186-0.012-0.26,0c0.041,0.206,0.095,0.663,0.055,0.938c-0.134-0.019-0.236-0.011-0.312,0.004
		c0.02,0.25-0.053,0.762-0.225,1.066c-0.255-0.083-0.638-0.145-0.974-0.038c-0.938,0.293-1.561,1.284-3.046,1.163
		c-0.35-0.029-0.801-0.107-1.15-0.186c-0.333-0.073-0.811-0.246-1.041-0.215c-0.269,0.036-0.285,0.206-0.335,0.489
		c-0.658-0.107-1.048-0.468-1.146-0.835c-0.292,0.206-0.269,0.574-0.273,0.906c-0.567-0.051-1.085-0.254-1.369-0.657
		c-0.206,0.403-0.738,0.789-1.357,0.774c0.037-0.253-0.005-0.661-0.286-0.922c-0.375,0.452-0.794,0.793-1.401,1.215
		c1.13,0.555,2.4,1.276,3.505,2.2c1.006,0.842,2.193,2.171,2.257,3.527c0.068,1.461-1.007,2.304-1.869,2.926
		c-0.853,0.616-1.564,1.115-2.379,1.646c-0.076,0.047-0.071,0.088-0.05,0.148c0.195,0.554,0.485,1.1,0.81,1.504
		c0.185,0.231,0.553,0.656,0.921,0.667c0.565,0.018,1.368-0.486,2.017-0.566c1.414-0.176,2.44,0.984,1.988,2.491
		C28.984,41.01,28.86,40.99,28.78,41c0.016,0.452-0.139,0.927-0.272,1.188c-0.114-0.073-0.246-0.113-0.338-0.126
		c-0.068,0.372-0.278,0.872-0.541,1.121c-0.184-0.156-0.48-0.242-0.651-0.262c-2.012-0.082-2.94,0.179-3.658-0.275
		c-0.228-0.144-0.483-0.533-0.688-0.796c-0.215-0.275-0.453-0.701-0.677-0.756c-0.281-0.068-0.456,0.041-0.601,0.182
		c-0.198-0.245-0.323-0.621-0.267-0.935c-0.262-0.063-0.571,0.152-0.751,0.325c-0.218-0.289-0.346-0.822-0.274-1.269
		c-0.349-0.077-0.688,0.149-0.878,0.367c-0.343-0.546-0.271-1.145-0.062-1.484c-0.474-0.092-0.885-0.413-1.05-0.861
		c0.804-0.332,0.915-0.836,1.181-1.396c0.35-0.738,2.58-0.822,2.816-1.861c0.076-0.334-0.037-0.767-0.157-0.985
		c-0.599-1.09-2.499-1.432-4.126-1.42c-0.064,0.9-0.163,1.67-0.345,2.338c-0.171,0.626-0.456,1.23-0.857,1.668
		c-0.534,0.583-1.469,0.912-2.321,1.159c-0.853,0.246-1.604,0.41-2.502,0.616c-0.146,0.016,0.074,1.508,0.535,2.474
		c0.25,0.524,0.345,0.809,0.792,0.742c0.558-0.083,1.32-0.449,2.024-0.425c1.437,0.051,2.441,1.542,1.652,3.064
		c-0.093-0.052-0.161-0.086-0.241-0.101c-0.055,0.345-0.203,0.684-0.347,0.911c-0.119-0.082-0.208-0.121-0.323-0.155
		c-0.143,0.43-0.427,0.79-0.673,0.951c-0.178-0.179-0.422-0.341-0.771-0.354c-2.168-0.078-3.104,0.232-3.986-0.552
		c-0.287-0.256-0.514-0.677-0.703-1.104c-0.368-0.834-0.661-1.294-1.294-0.685c-0.26-0.384-0.29-0.87-0.119-1.189
		c-0.283-0.09-0.669,0.034-0.898,0.146c-0.229-0.396-0.2-1.042,0.047-1.361c-0.596-0.058-1.162-0.541-1.271-1.184
		c0.341,0.009,0.77-0.168,1.01-0.399c-0.554-0.111-0.997-0.581-1.126-1.21c0.366,0,0.782-0.079,1.016-0.257
		c0.526-0.402,0.36-1.213,1.177-1.479c0.979-0.319,2.893,0.112,2.948-1.082c0.023-0.501-0.35-1.454-0.509-2.051
		c-0.169-0.633-0.265-1.295-0.265-2.025c-4.517,0.419-5.963-2.502-5.835-4.876c0.104-1.937,0.818-3.281,1.968-5.515
		c1.415-2.754,2.443-4.736,2.356-6.627c-0.041-0.862-0.364-1.88-1.022-2.059c-1.256-0.343-1.736,1.048-1.127,1.766
		c0.206,0.241,0.604,0.418,1.079,0.371c0.017,0.64-0.316,1.034-0.78,1.141c0.162,1.173-0.33,2.163-1.187,2.622
		c-0.011-0.135-0.047-0.242-0.083-0.372c-0.615,0.47-1.938,0.964-2.8,0.396c0.254-0.283,0.383-0.431,0.547-0.651
		c0.336-0.451,0.617-0.995,0.657-1.619c0.042-0.652,0.07-1.292,0.084-1.824c0.041-1.682,1.184-3.42,3.284-3.267
		c1.771,0.128,2.771,1.541,2.863,3.431c0.104,2.18-1.022,4.681-2.549,8.175c-0.605,1.388-1.17,2.831-1.124,3.944
		c0.057,1.369,0.993,2.329,2.315,2.36c0.806,0.02,1.802-0.36,2.22-0.774c0.058-0.059,0.113-0.14,0.341-0.446
		c1.008-1.368,3.075-2.251,3.198-4.408c-0.691,0.208-1.583-0.209-1.733-0.708c0.618-0.223,1.06-0.711,0.905-1.969
		c-0.01-0.118-0.026-0.285-0.032-0.429c-0.341,0.056-0.621,0.294-0.783,0.55c-1.122-1.132-0.542-2.576-0.162-3.582
		c-0.861,0.042-1.554-0.604-1.642-1.178c0.417-0.054,0.68-0.352,0.67-0.709c-0.009-0.295-0.222-0.745-0.387-1.099
		c-0.476-1.012-0.936-2.03-0.909-3.41C10.148,9.16,9.876,8.455,9.895,7.899c0.529-0.038,0.906-0.285,0.923-0.616
		c0.013-0.263,0.058-0.756,0.171-1.08c-0.203-0.193-0.526-0.783-0.209-1.476c0.227,0.051,0.58,0.062,0.796-0.055
		c0.094-0.051,0.276-0.37,0.588-0.592c-0.046-0.215-0.003-0.697,0.242-1.002c0.152,0.067,0.397,0.132,0.639,0.156
		c1.046,0.104,3.532-0.618,5.371,0.059c0.383,0.141,0.708,0.356,0.946,0.588c0.365,0.039,0.823,0.116,1.276,0.215
		c0.898,0.197,0.881,0.356,1.218,0.419c0.136,0.026,0.513,0.053,0.89,0.084c0.402,0.033,1.559,0.24,1.787,0.48
		c0.209,0.22-0.004,0.615,0.008,1.048c0.01,0.399,0.215,1.106-0.062,1.581C24.387,7.864,24.21,7.939,24.034,7.969"/>
	<path d="M17.779,5.831c-0.054,0.252-0.278,0.315-0.279,0.126c-0.003-0.539-0.578-0.811-1.188-0.864
		c-0.162-0.015-0.001-0.13,0.168-0.145C17.062,4.896,17.905,5.255,17.779,5.831"/>
	<path d="M12.806,10.625c-0.206,1.146,0.43,1.219,0.465,2.063c0.423,0.078,0.889-0.223,1.145-0.617
		c0.043-0.065,0.082,0.001,0.045,0.146c-0.151,0.593-0.928,1.175-1.674,0.92c0.335-0.771-0.64-1.515-0.118-2.458
		C12.771,10.495,12.82,10.531,12.806,10.625"/>
	<path d="M14.9,13.733c0.067-0.082,0.127-0.06,0.103,0.022c-0.585,1.9,0.851,2.035,0.96,3.673c0.597-0.157,0.864-0.628,1.062-1.191
		c0.046-0.151,0.126-0.067,0.114,0.136c-0.022,0.423-0.143,0.767-0.278,0.97c-0.247,0.365-0.808,0.824-1.518,0.708
		c0.451-1.429-0.78-1.961-0.783-3.244C14.558,14.506,14.681,13.981,14.9,13.733"/>
	<path d="M22.518,17.158c-0.048-0.067-0.051-0.191,0.207,0.041c1.164,1.041,0.018,2.855,0.797,3.752
		c-1.071,0.409-2.097-0.314-2.217-0.932c-0.057-0.304,0.168,0.102,0.463,0.293c0.248,0.16,0.731,0.326,0.984,0.269
		C22.45,19.466,23.377,18.52,22.518,17.158"/>
</g>
<path fill="#FFFFFF" d="M57,15H39v18h18V15L57,15z"/>
<g>
	<path fill-rule="evenodd" clip-rule="evenodd" fill="#00A7E7" d="M39,15l18,18H39V15z"/>
</g>
<path d="M56,16v16H40V16H56 M57,15H39v18h18V15L57,15z"/>
</svg>
